# xmcd
#
# Track frame offsets:
#	150
#	13245
#	23495
#	43983
#	60398
#	69782
#	77870
#	90457
#	96941
#	108689
#	115050
#	125191
#	133314
#	152888
#
# Disc length: 2121 seconds
#
# Revision: 1
# Processed by: cddbd v1.5.1PL0 Copyright (c) Steve Scherf et al.
# Submitted via: CDex 1.50Beta5
#
DISCID=be08470e
DTITLE=MP-Factory - Leaf-FEEL
DYEAR=1900
DGENRE=
TTITLE0=あたらしい予感
TTITLE1=Daily music
TTITLE2=Bland new heart
TTITLE3=風はいつも一番
TTITLE4=晴れのちVサイン
TTITLE5=Thrilling
TTITLE6=あなたの横顔
TTITLE7=ドタバタでQ
TTITLE8=言えないチカラ
TTITLE9=世界が俺を呼んでいる
TTITLE10=夢見るロボット
TTITLE11=はっぴーはっぴーらいふ
TTITLE12=As time goes by
TTITLE13=暮れゆく陽
EXTD=
EXTT0=
EXTT1=
EXTT2=
EXTT3=
EXTT4=
EXTT5=
EXTT6=
EXTT7=
EXTT8=
EXTT9=
EXTT10=
EXTT11=
EXTT12=
EXTT13=
PLAYORDER=
